<svg width="12" height="12" viewBox="0 0 12 12" fill="none" xmlns="http://www.w3.org/2000/svg">
<g clip-path="url(#clip0_0_179)">
<path d="M8.80684 7.75731C9.53306 6.76633 9.85833 5.53768 9.71756 4.31717C9.5768 3.09667 8.9804 1.97432 8.04766 1.17466C7.11492 0.375003 5.91465 -0.0429849 4.68696 0.00431997C3.45928 0.0516248 2.29473 0.560734 1.42629 1.42979C0.557851 2.29885 0.0495756 3.46377 0.00314921 4.69149C-0.0432772 5.91921 0.37557 7.11918 1.17589 8.05135C1.97622 8.98351 3.099 9.57911 4.3196 9.719C5.54021 9.85889 6.76862 9.53274 7.75909 8.80581H7.75834C7.78084 8.83581 7.80484 8.86431 7.83184 8.89206L10.7193 11.7796C10.86 11.9203 11.0507 11.9994 11.2497 11.9995C11.4486 11.9995 11.6395 11.9206 11.7802 11.7799C11.9209 11.6393 12 11.4485 12.0001 11.2496C12.0002 11.0506 11.9212 10.8598 11.7806 10.7191L8.89309 7.83156C8.86627 7.80442 8.83744 7.7801 8.80684 7.75731ZM9.00034 4.87431C9.00034 5.41602 8.89364 5.95241 8.68634 6.45288C8.47904 6.95335 8.17519 7.40809 7.79215 7.79113C7.40911 8.17417 6.95437 8.47802 6.45391 8.68532C5.95344 8.89262 5.41704 8.99931 4.87534 8.99931C4.33363 8.99931 3.79724 8.89262 3.29677 8.68532C2.7963 8.47802 2.34156 8.17417 1.95852 7.79113C1.57548 7.40809 1.27164 6.95335 1.06433 6.45288C0.857034 5.95241 0.750338 5.41602 0.750338 4.87431C0.750338 3.78029 1.18493 2.73108 1.95852 1.9575C2.73211 1.18391 3.78132 0.749313 4.87534 0.749313C5.96936 0.749313 7.01857 1.18391 7.79215 1.9575C8.56574 2.73108 9.00034 3.78029 9.00034 4.87431Z" fill="#2F3443" fill-opacity="0.6"/>
</g>
<defs>
<clipPath id="clip0_0_179">
<rect width="12" height="12" fill="white"/>
</clipPath>
</defs>
</svg>
