<svg width="26" height="26" viewBox="0 0 26 26" fill="none" xmlns="http://www.w3.org/2000/svg">
<rect x="1" y="1" width="24" height="24" rx="2" fill="white" stroke="#2F3443" stroke-opacity="0.5" stroke-width="0.5"/>
<path d="M10.5 7.16666C10.279 7.16666 10.067 7.25446 9.91076 7.41074C9.75447 7.56702 9.66668 7.77898 9.66668 8C9.66668 8.22101 9.75447 8.43297 9.91076 8.58925C10.067 8.74553 10.279 8.83333 10.5 8.83333C10.721 8.83333 10.933 8.74553 11.0893 8.58925C11.2455 8.43297 11.3333 8.22101 11.3333 8C11.3333 7.77898 11.2455 7.56702 11.0893 7.41074C10.933 7.25446 10.721 7.16666 10.5 7.16666ZM8.14168 7.16666C8.31385 6.67872 8.63313 6.25619 9.05551 5.95732C9.47789 5.65845 9.98258 5.49796 10.5 5.49796C11.0174 5.49796 11.5221 5.65845 11.9445 5.95732C12.3669 6.25619 12.6862 6.67872 12.8583 7.16666H18.8333C19.0544 7.16666 19.2663 7.25446 19.4226 7.41074C19.5789 7.56702 19.6667 7.77898 19.6667 8C19.6667 8.22101 19.5789 8.43297 19.4226 8.58925C19.2663 8.74553 19.0544 8.83333 18.8333 8.83333H12.8583C12.6862 9.32127 12.3669 9.7438 11.9445 10.0427C11.5221 10.3415 11.0174 10.502 10.5 10.502C9.98258 10.502 9.47789 10.3415 9.05551 10.0427C8.63313 9.7438 8.31385 9.32127 8.14168 8.83333H7.16668C6.94566 8.83333 6.7337 8.74553 6.57742 8.58925C6.42114 8.43297 6.33334 8.22101 6.33334 8C6.33334 7.77898 6.42114 7.56702 6.57742 7.41074C6.7337 7.25446 6.94566 7.16666 7.16668 7.16666H8.14168ZM15.5 12.1667C15.279 12.1667 15.067 12.2545 14.9108 12.4107C14.7545 12.567 14.6667 12.779 14.6667 13C14.6667 13.221 14.7545 13.433 14.9108 13.5893C15.067 13.7455 15.279 13.8333 15.5 13.8333C15.721 13.8333 15.933 13.7455 16.0893 13.5893C16.2455 13.433 16.3333 13.221 16.3333 13C16.3333 12.779 16.2455 12.567 16.0893 12.4107C15.933 12.2545 15.721 12.1667 15.5 12.1667ZM13.1417 12.1667C13.3138 11.6787 13.6331 11.2562 14.0555 10.9573C14.4779 10.6585 14.9826 10.498 15.5 10.498C16.0174 10.498 16.5221 10.6585 16.9445 10.9573C17.3669 11.2562 17.6862 11.6787 17.8583 12.1667H18.8333C19.0544 12.1667 19.2663 12.2545 19.4226 12.4107C19.5789 12.567 19.6667 12.779 19.6667 13C19.6667 13.221 19.5789 13.433 19.4226 13.5893C19.2663 13.7455 19.0544 13.8333 18.8333 13.8333H17.8583C17.6862 14.3213 17.3669 14.7438 16.9445 15.0427C16.5221 15.3415 16.0174 15.502 15.5 15.502C14.9826 15.502 14.4779 15.3415 14.0555 15.0427C13.6331 14.7438 13.3138 14.3213 13.1417 13.8333H7.16668C6.94566 13.8333 6.7337 13.7455 6.57742 13.5893C6.42114 13.433 6.33334 13.221 6.33334 13C6.33334 12.779 6.42114 12.567 6.57742 12.4107C6.7337 12.2545 6.94566 12.1667 7.16668 12.1667H13.1417ZM10.5 17.1667C10.279 17.1667 10.067 17.2545 9.91076 17.4107C9.75447 17.567 9.66668 17.779 9.66668 18C9.66668 18.221 9.75447 18.433 9.91076 18.5893C10.067 18.7455 10.279 18.8333 10.5 18.8333C10.721 18.8333 10.933 18.7455 11.0893 18.5893C11.2455 18.433 11.3333 18.221 11.3333 18C11.3333 17.779 11.2455 17.567 11.0893 17.4107C10.933 17.2545 10.721 17.1667 10.5 17.1667ZM8.14168 17.1667C8.31385 16.6787 8.63313 16.2562 9.05551 15.9573C9.47789 15.6585 9.98258 15.498 10.5 15.498C11.0174 15.498 11.5221 15.6585 11.9445 15.9573C12.3669 16.2562 12.6862 16.6787 12.8583 17.1667H18.8333C19.0544 17.1667 19.2663 17.2545 19.4226 17.4107C19.5789 17.567 19.6667 17.779 19.6667 18C19.6667 18.221 19.5789 18.433 19.4226 18.5893C19.2663 18.7455 19.0544 18.8333 18.8333 18.8333H12.8583C12.6862 19.3213 12.3669 19.7438 11.9445 20.0427C11.5221 20.3415 11.0174 20.502 10.5 20.502C9.98258 20.502 9.47789 20.3415 9.05551 20.0427C8.63313 19.7438 8.31385 19.3213 8.14168 18.8333H7.16668C6.94566 18.8333 6.7337 18.7455 6.57742 18.5893C6.42114 18.433 6.33334 18.221 6.33334 18C6.33334 17.779 6.42114 17.567 6.57742 17.4107C6.7337 17.2545 6.94566 17.1667 7.16668 17.1667H8.14168Z" fill="#2F3443"/>
</svg>
