<svg width="50" height="46" viewBox="0 0 50 46" fill="none" xmlns="http://www.w3.org/2000/svg">
<path d="M50 21.7593L35.9483 25.5267V14.2703L50 10.5038L45.8218 18.445L50 21.7593Z" fill="#FF9300"/>
<path d="M35.5135 24.5968L44.125 28.3634V17.107L35.5135 13.3405V24.5968Z" fill="#FF7C00"/>
<path d="M9.02604 31.5273L0 33.9475C2.43214 37.1761 5.50503 39.8675 9.02604 41.8528V31.5273Z" fill="#FF9300"/>
<path d="M1.43716 28.4578V35.69C3.86354 38.44 6.78385 40.7107 10.0468 42.3847V32.2243L1.43716 28.4578Z" fill="#FF7C00"/>
<path d="M14.6322 16.7144V8.02771C14.6322 4.13373 17.7852 1 21.7012 1C25.6172 1 28.7692 4.13373 28.7692 8.02771V16.7144" stroke="#1A1A1A" stroke-width="1.5" stroke-linecap="round" stroke-linejoin="round"/>
<path d="M12.2679 11.2247C11.3966 11.2247 10.6951 11.9272 10.6951 12.7994V42.6976C14.6576 44.6171 19.0012 45.6205 23.4042 45.6332C28.9206 45.6286 34.324 44.0692 38.9947 41.134V12.7994C38.9947 11.9281 38.2932 11.2247 37.4219 11.2247H12.2679Z" fill="#E42C34"/>
<path d="M10.7831 11.2247C9.86421 11.2247 9.1232 11.9272 9.1232 12.7994V41.9116C13.4888 44.3483 18.4046 45.6294 23.4042 45.6332C28.9206 45.6286 34.3241 44.0692 38.9948 41.134V12.7994C38.9948 11.9281 38.2556 11.2247 37.3358 11.2247H10.7831Z" fill="#E42C34"/>
<path d="M17.7705 18.3028C18.6386 18.3028 19.3424 17.5986 19.3424 16.7299C19.3424 15.8613 18.6386 15.1572 17.7705 15.1572C16.9024 15.1572 16.1985 15.8613 16.1985 16.7299C16.1985 17.5986 16.9024 18.3028 17.7705 18.3028Z" fill="#E6E6E6"/>
<path d="M31.9194 18.3028C32.7875 18.3028 33.4913 17.5986 33.4913 16.7299C33.4913 15.8613 32.7875 15.1572 31.9194 15.1572C31.0513 15.1572 30.3475 15.8613 30.3475 16.7299C30.3475 17.5986 31.0513 18.3028 31.9194 18.3028Z" fill="#E6E6E6"/>
<path d="M17.7769 16.719V8.03235C17.7769 4.13929 20.929 1.00464 24.845 1.00464C28.7609 1.00464 31.9139 4.13929 31.9139 8.03235V16.719" stroke="#1A1A1A" stroke-width="1.5" stroke-linecap="round" stroke-linejoin="round"/>
<path d="M7.55225 11.2247C6.68101 11.2247 5.97943 11.9272 5.97943 12.7994V39.8564C7.45883 40.9491 9.03767 41.9004 10.6951 42.6976V12.7985C10.6951 11.9272 11.3976 11.2247 12.2679 11.2247H7.55225Z" fill="#BB2C34"/>
<path d="M7.55134 11.2248C7.34455 11.2243 7.1397 11.2646 6.94859 11.3436C6.75748 11.4226 6.58388 11.5387 6.43779 11.685C6.29169 11.8314 6.17598 12.0052 6.09732 12.1964C6.01866 12.3877 5.9786 12.5926 5.97944 12.7994V12.815C5.98196 13.1535 6.09214 13.4856 6.29904 13.7783C6.50595 14.0709 6.80237 14.314 7.15883 14.4832C7.51716 14.6533 7.92358 14.7428 8.33729 14.7428C8.751 14.7428 9.15743 14.6533 9.51576 14.4832C9.87255 14.314 10.1693 14.0709 10.3763 13.778C10.5834 13.4852 10.6936 13.1528 10.6961 12.814C10.6961 12.8092 10.6961 12.8043 10.6961 12.7994C10.6961 11.9281 11.3967 11.2256 12.268 11.2256L7.55134 11.2248Z" fill="#9A2C34"/>
<path d="M38.9948 20.1911L5.98679 29.0199V39.8637C6.05868 39.9185 6.13082 39.9729 6.20322 40.0269L38.9948 31.1999V20.1911Z" fill="#333333" fill-opacity="0.423"/>
<path d="M44.1251 17.0116L1.43716 28.456V35.69C2.42691 36.8244 3.50247 37.8809 4.65433 38.8503L44.1251 28.2698V17.0116Z" fill="#FFB400"/>
<path d="M17.6971 28.0901C17.698 27.8792 17.7421 27.7177 17.8273 27.604C17.9143 27.4889 18.039 27.4081 18.1795 27.3756C18.3299 27.3353 18.4473 27.3463 18.5326 27.415C18.6179 27.4829 18.661 27.6224 18.6628 27.8315V31.0348C18.661 31.2458 18.617 31.4072 18.5326 31.5209C18.4456 31.6365 18.3205 31.7177 18.1795 31.7502C18.03 31.7896 17.9126 31.7787 17.8273 31.7099C17.7421 31.642 17.699 31.5025 17.6971 31.2934V28.0901ZM16.7654 31.4833C16.7672 31.9602 16.8882 32.2959 17.1294 32.4885C17.3706 32.6811 17.721 32.7168 18.1795 32.5966C18.639 32.4737 18.9893 32.2464 19.2305 31.9254C19.4717 31.6035 19.5928 31.2036 19.5946 30.7258V27.6407C19.5928 27.1638 19.4717 26.829 19.2305 26.6364C18.9893 26.4438 18.639 26.4072 18.1795 26.5283C17.721 26.6512 17.3706 26.8776 17.1294 27.1995C16.8882 27.5205 16.7672 27.9213 16.7654 28.3991V31.4833ZM21.1316 26.6521L22.665 26.2412V25.3938L20.1999 26.0541V31.9877L21.1316 31.7373V29.2887L22.3349 28.965V28.1175L21.1316 28.4404V26.6521ZM24.0443 25.8716L25.5777 25.4607V24.6125L23.1126 25.2737V31.2072L24.0443 30.9569V28.5073L25.2466 28.1846V27.3371L24.0443 27.66V25.8716ZM26.9561 25.0912L28.5656 24.6592V23.8118L26.0243 24.4933V30.4259L28.5656 29.7445V28.8971L26.9561 29.3281V27.5911L28.2354 27.2481V26.4008L26.9561 26.7438V25.0912ZM32.0322 28.8145C31.9865 28.716 31.9574 28.6107 31.946 28.5027C31.9333 28.3763 31.9281 28.2492 31.9304 28.1221V27.2069C31.9341 26.8951 31.8891 26.6429 31.7956 26.4522C31.7039 26.2614 31.5416 26.1476 31.3123 26.11C31.5135 25.9643 31.6723 25.7678 31.7727 25.5405C31.8736 25.3131 31.9222 25.0472 31.9222 24.7427V24.2767C31.9249 23.8182 31.8158 23.5064 31.5938 23.3386C31.3719 23.1717 31.0216 23.1533 30.541 23.2817L29.1351 23.6587V29.5922L30.0669 29.3419V26.9263L30.3888 26.8401C30.5997 26.7832 30.7538 26.7961 30.8528 26.886C30.951 26.9777 30.9996 27.1583 30.9986 27.4307V28.3634C30.9986 28.5954 31.0069 28.7559 31.0216 28.8449C31.0372 28.9338 31.0583 29.0099 31.083 29.0695L32.0322 28.8145ZM30.5163 24.1365C30.6804 24.0924 30.8006 24.108 30.8767 24.186C30.9537 24.2639 30.9913 24.4088 30.9904 24.6198V25.2049C30.9886 25.4388 30.939 25.6157 30.8409 25.7368C30.7351 25.8615 30.5909 25.9475 30.431 25.9816L30.0669 26.0789V24.2566L30.5163 24.1365Z" fill="white"/>
<path d="M4.92304 39.0539L4.70385 38.8356L4.65341 38.8503C4.74259 38.919 4.83216 38.9872 4.92212 39.0548L4.92304 39.0539Z" fill="#666666"/>
</svg>
