<svg width="20" height="20" viewBox="0 0 20 20" fill="none" xmlns="http://www.w3.org/2000/svg">
<path d="M17.5 7.99998C17.5 7.86737 17.4473 7.74019 17.3536 7.64642C17.2598 7.55266 17.1326 7.49998 17 7.49998C16.8674 7.49998 16.7402 7.55266 16.6464 7.64642C16.5527 7.74019 16.5 7.86737 16.5 7.99998H17.5ZM3.5 7.99998C3.5 7.86737 3.44732 7.74019 3.35355 7.64642C3.25979 7.55266 3.13261 7.49998 3 7.49998C2.86739 7.49998 2.74022 7.55266 2.64645 7.64642C2.55268 7.74019 2.5 7.86737 2.5 7.99998H3.5ZM18.646 10.354C18.7399 10.4479 18.8672 10.5006 19 10.5006C19.1328 10.5006 19.2601 10.4479 19.354 10.354C19.4479 10.2601 19.5006 10.1328 19.5006 9.99998C19.5006 9.8672 19.4479 9.73986 19.354 9.64598L18.646 10.354ZM10 0.999978L10.354 0.645978C10.3076 0.599415 10.2524 0.562472 10.1916 0.537266C10.1309 0.512059 10.0658 0.499084 10 0.499084C9.93423 0.499084 9.86911 0.512059 9.80837 0.537266C9.74762 0.562472 9.69245 0.599415 9.646 0.645978L10 0.999978ZM0.646 9.64598C0.552114 9.73986 0.499369 9.8672 0.499369 9.99998C0.499369 10.1328 0.552114 10.2601 0.646 10.354C0.739887 10.4479 0.867224 10.5006 1 10.5006C1.13278 10.5006 1.26011 10.4479 1.354 10.354L0.646 9.64598ZM5 19.5H15V18.5H5V19.5ZM17.5 17V7.99998H16.5V17H17.5ZM3.5 17V7.99998H2.5V17H3.5ZM19.354 9.64598L10.354 0.645978L9.646 1.35398L18.646 10.354L19.354 9.64598ZM9.646 0.645978L0.646 9.64598L1.354 10.354L10.354 1.35398L9.646 0.645978ZM15 19.5C15.663 19.5 16.2989 19.2366 16.7678 18.7677C17.2366 18.2989 17.5 17.663 17.5 17H16.5C16.5 17.3978 16.342 17.7793 16.0607 18.0606C15.7794 18.3419 15.3978 18.5 15 18.5V19.5ZM5 18.5C4.60218 18.5 4.22064 18.3419 3.93934 18.0606C3.65804 17.7793 3.5 17.3978 3.5 17H2.5C2.5 17.663 2.76339 18.2989 3.23223 18.7677C3.70107 19.2366 4.33696 19.5 5 19.5V18.5Z" fill="white"/>
</svg>
