<svg width="24" height="24" viewBox="0 0 24 24" fill="none" xmlns="http://www.w3.org/2000/svg">
<path d="M19.5 9.99998C19.5 9.86737 19.4473 9.74019 19.3536 9.64642C19.2598 9.55266 19.1326 9.49998 19 9.49998C18.8674 9.49998 18.7402 9.55266 18.6464 9.64642C18.5527 9.74019 18.5 9.86737 18.5 9.99998H19.5ZM5.5 9.99998C5.5 9.86737 5.44732 9.74019 5.35355 9.64642C5.25979 9.55266 5.13261 9.49998 5 9.49998C4.86739 9.49998 4.74022 9.55266 4.64645 9.64642C4.55268 9.74019 4.5 9.86737 4.5 9.99998H5.5ZM20.646 12.354C20.7399 12.4479 20.8672 12.5006 21 12.5006C21.1328 12.5006 21.2601 12.4479 21.354 12.354C21.4479 12.2601 21.5006 12.1328 21.5006 12C21.5006 11.8672 21.4479 11.7399 21.354 11.646L20.646 12.354ZM12 2.99998L12.354 2.64598C12.3076 2.59941 12.2524 2.56247 12.1916 2.53727C12.1309 2.51206 12.0658 2.49908 12 2.49908C11.9342 2.49908 11.8691 2.51206 11.8084 2.53727C11.7476 2.56247 11.6924 2.59941 11.646 2.64598L12 2.99998ZM2.646 11.646C2.55211 11.7399 2.49937 11.8672 2.49937 12C2.49937 12.1328 2.55211 12.2601 2.646 12.354C2.73989 12.4479 2.86722 12.5006 3 12.5006C3.13278 12.5006 3.26011 12.4479 3.354 12.354L2.646 11.646ZM7 21.5H17V20.5H7V21.5ZM19.5 19V9.99998H18.5V19H19.5ZM5.5 19V9.99998H4.5V19H5.5ZM21.354 11.646L12.354 2.64598L11.646 3.35398L20.646 12.354L21.354 11.646ZM11.646 2.64598L2.646 11.646L3.354 12.354L12.354 3.35398L11.646 2.64598ZM17 21.5C17.663 21.5 18.2989 21.2366 18.7678 20.7677C19.2366 20.2989 19.5 19.663 19.5 19H18.5C18.5 19.3978 18.342 19.7793 18.0607 20.0606C17.7794 20.3419 17.3978 20.5 17 20.5V21.5ZM7 20.5C6.60218 20.5 6.22064 20.3419 5.93934 20.0606C5.65804 19.7793 5.5 19.3978 5.5 19H4.5C4.5 19.663 4.76339 20.2989 5.23223 20.7677C5.70107 21.2366 6.33696 21.5 7 21.5V20.5Z" fill="white"/>
</svg>
