<svg width="29" height="29" viewBox="0 0 29 29" fill="none" xmlns="http://www.w3.org/2000/svg">
<path fill-rule="evenodd" clip-rule="evenodd" d="M20.3926 0.75H24.8841C26.7425 0.75 28.25 2.27061 28.25 4.1465V8.67564C28.25 10.5501 26.7425 12.0721 24.8841 12.0721H20.3926C18.5328 12.0721 17.0253 10.5501 17.0253 8.67564V4.1465C17.0253 2.27061 18.5328 0.75 20.3926 0.75ZM4.11727 0.75H8.60742C10.4672 0.75 11.9747 2.27061 11.9747 4.1465V8.67564C11.9747 10.5501 10.4672 12.0721 8.60742 12.0721H4.11727C2.25752 12.0721 0.75 10.5501 0.75 8.67564V4.1465C0.75 2.27061 2.25752 0.75 4.11727 0.75ZM4.11727 16.9279H8.60742C10.4672 16.9279 11.9747 18.4485 11.9747 20.3258V24.8535C11.9747 26.7294 10.4672 28.25 8.60742 28.25H4.11727C2.25752 28.25 0.75 26.7294 0.75 24.8535V20.3258C0.75 18.4485 2.25752 16.9279 4.11727 16.9279ZM20.3926 16.9279H24.8841C26.7425 16.9279 28.25 18.4485 28.25 20.3258V24.8535C28.25 26.7294 26.7425 28.25 24.8841 28.25H20.3926C18.5328 28.25 17.0253 26.7294 17.0253 24.8535V20.3258C17.0253 18.4485 18.5328 16.9279 20.3926 16.9279Z" stroke="white" stroke-width="1.5" stroke-linecap="round" stroke-linejoin="round"/>
</svg>
