<svg width="24" height="24" viewBox="0 0 24 24" fill="none" xmlns="http://www.w3.org/2000/svg">
<path d="M7 8V7.5C7 7.036 7 6.803 7.02 6.608C7.11061 5.68708 7.51771 4.82606 8.17196 4.17164C8.8262 3.51721 9.6871 3.10987 10.608 3.019C10.803 3 11.036 3 11.5 3C11.964 3 12.197 3 12.392 3.02C13.3129 3.11061 14.1739 3.51771 14.8284 4.17196C15.4828 4.8262 15.8901 5.6871 15.981 6.608C16 6.803 16 7.036 16 7.5V8M15 13V11M8 13V11" stroke="#A0A0A0" stroke-linecap="round"/>
<path d="M5 11.6C5 9.903 5 9.054 5.527 8.527C6.054 8 6.903 8 8.6 8H14.4C16.097 8 16.946 8 17.473 8.527C18 9.054 18 9.903 18 11.6V14C18 16.828 18 18.243 17.121 19.121C16.243 20 14.828 20 12 20H11C8.172 20 6.757 20 5.879 19.121C5 18.243 5 16.828 5 14V11.6Z" stroke="#A0A0A0"/>
</svg>
