<svg width="15" height="19" viewBox="0 0 15 19" fill="none" xmlns="http://www.w3.org/2000/svg">
<path d="M3 6V5.5C3 5.036 3 4.803 3.02 4.608C3.11061 3.68708 3.51771 2.82606 4.17196 2.17164C4.8262 1.51721 5.6871 1.10987 6.608 1.019C6.803 1 7.036 1 7.5 1C7.964 1 8.197 1 8.392 1.02C9.31292 1.11061 10.1739 1.51771 10.8284 2.17196C11.4828 2.8262 11.8901 3.6871 11.981 4.608C12 4.803 12 5.036 12 5.5V6M11 11V9M4 11V9" stroke="#A0A0A0" stroke-linecap="round"/>
<path d="M1 9.6C1 7.903 1 7.054 1.527 6.527C2.054 6 2.903 6 4.6 6H10.4C12.097 6 12.946 6 13.473 6.527C14 7.054 14 7.903 14 9.6V12C14 14.828 14 16.243 13.121 17.121C12.243 18 10.828 18 8 18H7C4.172 18 2.757 18 1.879 17.121C1 16.243 1 14.828 1 12V9.6Z" stroke="#A0A0A0"/>
</svg>
