<svg width="15" height="15" viewBox="0 0 15 15" fill="none" xmlns="http://www.w3.org/2000/svg">
<path d="M7.5 7.5C7.84375 7.5 8.13812 7.3775 8.38312 7.1325C8.62812 6.8875 8.75042 6.59333 8.75 6.25C8.75 5.90625 8.6275 5.61188 8.3825 5.36688C8.1375 5.12188 7.84333 4.99958 7.5 5C7.15625 5 6.86187 5.1225 6.61687 5.3675C6.37187 5.6125 6.24958 5.90667 6.25 6.25C6.25 6.59375 6.3725 6.88813 6.6175 7.13313C6.8625 7.37813 7.15667 7.50042 7.5 7.5ZM7.5 13.5156C7.41667 13.5156 7.33333 13.5 7.25 13.4688C7.16667 13.4375 7.09375 13.3958 7.03125 13.3438C5.51042 12 4.375 10.7525 3.625 9.60125C2.875 8.45 2.5 7.37458 2.5 6.375C2.5 4.8125 3.00271 3.56771 4.00812 2.64063C5.01354 1.71354 6.1775 1.25 7.5 1.25C8.82292 1.25 9.98708 1.71354 10.9925 2.64063C11.9979 3.56771 12.5004 4.8125 12.5 6.375C12.5 7.375 12.125 8.45063 11.375 9.60188C10.625 10.7531 9.48958 12.0004 7.96875 13.3438C7.90625 13.3958 7.83333 13.4375 7.75 13.4688C7.66667 13.5 7.58333 13.5156 7.5 13.5156Z" fill="#FCC647"/>
</svg>
