<svg width="17" height="16" viewBox="0 0 17 16" fill="none" xmlns="http://www.w3.org/2000/svg">
<g clip-path="url(#clip0_0_36)">
<path d="M4.23333 10.0118L2.83333 8.49412C3.52222 7.76471 4.31111 7.20588 5.2 6.81765C6.08889 6.42941 7.02222 6.23529 8 6.23529C8.97778 6.23529 9.914 6.43247 10.8087 6.82682C11.7033 7.22118 12.4893 7.78871 13.1667 8.52941L11.7667 10.0118C11.2667 9.48235 10.6916 9.07341 10.0413 8.78494C9.39111 8.49647 8.71067 8.35247 8 8.35294C7.28889 8.35294 6.60822 8.49718 5.958 8.78565C5.30778 9.07412 4.73289 9.48282 4.23333 10.0118ZM1.4 7.01177L0 5.52941C1.05556 4.38824 2.27511 3.51459 3.65867 2.90847C5.04222 2.30235 6.48933 1.99953 8 2C9.51111 2 10.9584 2.30306 12.342 2.90918C13.7256 3.51529 14.9449 4.38871 16 5.52941L14.6 7.01177C13.7222 6.08235 12.7138 5.36753 11.5747 4.86729C10.4356 4.36706 9.244 4.11718 8 4.11765C6.75556 4.11765 5.56378 4.36776 4.42467 4.868C3.28556 5.36823 2.27733 6.08282 1.4 7.01177ZM8 14L5.65 11.4941C5.96111 11.1647 6.31956 10.9118 6.72533 10.7353C7.13111 10.5588 7.556 10.4706 8 10.4706C8.44444 10.4706 8.86956 10.5588 9.27533 10.7353C9.68111 10.9118 10.0393 11.1647 10.35 11.4941L8 14Z" fill="#2F3443"/>
</g>
<defs>
<clipPath id="clip0_0_36">
<rect width="16.2791" height="16" fill="white"/>
</clipPath>
</defs>
</svg>
