<svg width="20" height="20" viewBox="0 0 20 20" fill="none" xmlns="http://www.w3.org/2000/svg">
<path d="M7.50001 4.16666C7.279 4.16666 7.06704 4.25446 6.91076 4.41074C6.75447 4.56702 6.66668 4.77898 6.66668 5C6.66668 5.22101 6.75447 5.43297 6.91076 5.58925C7.06704 5.74553 7.279 5.83333 7.50001 5.83333C7.72102 5.83333 7.93299 5.74553 8.08927 5.58925C8.24555 5.43297 8.33334 5.22101 8.33334 5C8.33334 4.77898 8.24555 4.56702 8.08927 4.41074C7.93299 4.25446 7.72102 4.16666 7.50001 4.16666ZM5.14168 4.16666C5.31385 3.67872 5.63313 3.25619 6.05551 2.95732C6.47789 2.65845 6.98258 2.49796 7.50001 2.49796C8.01744 2.49796 8.52213 2.65845 8.94451 2.95732C9.36689 3.25619 9.68618 3.67872 9.85834 4.16666H15.8333C16.0544 4.16666 16.2663 4.25446 16.4226 4.41074C16.5789 4.56702 16.6667 4.77898 16.6667 5C16.6667 5.22101 16.5789 5.43297 16.4226 5.58925C16.2663 5.74553 16.0544 5.83333 15.8333 5.83333H9.85834C9.68618 6.32127 9.36689 6.7438 8.94451 7.04267C8.52213 7.34154 8.01744 7.50204 7.50001 7.50204C6.98258 7.50204 6.47789 7.34154 6.05551 7.04267C5.63313 6.7438 5.31385 6.32127 5.14168 5.83333H4.16668C3.94566 5.83333 3.7337 5.74553 3.57742 5.58925C3.42114 5.43297 3.33334 5.22101 3.33334 5C3.33334 4.77898 3.42114 4.56702 3.57742 4.41074C3.7337 4.25446 3.94566 4.16666 4.16668 4.16666H5.14168ZM12.5 9.16666C12.279 9.16666 12.067 9.25446 11.9108 9.41074C11.7545 9.56702 11.6667 9.77898 11.6667 10C11.6667 10.221 11.7545 10.433 11.9108 10.5893C12.067 10.7455 12.279 10.8333 12.5 10.8333C12.721 10.8333 12.933 10.7455 13.0893 10.5893C13.2455 10.433 13.3333 10.221 13.3333 10C13.3333 9.77898 13.2455 9.56702 13.0893 9.41074C12.933 9.25446 12.721 9.16666 12.5 9.16666ZM10.1417 9.16666C10.3138 8.67872 10.6331 8.25619 11.0555 7.95732C11.4779 7.65845 11.9826 7.49795 12.5 7.49795C13.0174 7.49795 13.5221 7.65845 13.9445 7.95732C14.3669 8.25619 14.6862 8.67872 14.8583 9.16666H15.8333C16.0544 9.16666 16.2663 9.25446 16.4226 9.41074C16.5789 9.56702 16.6667 9.77898 16.6667 10C16.6667 10.221 16.5789 10.433 16.4226 10.5893C16.2663 10.7455 16.0544 10.8333 15.8333 10.8333H14.8583C14.6862 11.3213 14.3669 11.7438 13.9445 12.0427C13.5221 12.3415 13.0174 12.502 12.5 12.502C11.9826 12.502 11.4779 12.3415 11.0555 12.0427C10.6331 11.7438 10.3138 11.3213 10.1417 10.8333H4.16668C3.94566 10.8333 3.7337 10.7455 3.57742 10.5893C3.42114 10.433 3.33334 10.221 3.33334 10C3.33334 9.77898 3.42114 9.56702 3.57742 9.41074C3.7337 9.25446 3.94566 9.16666 4.16668 9.16666H10.1417ZM7.50001 14.1667C7.279 14.1667 7.06704 14.2545 6.91076 14.4107C6.75447 14.567 6.66668 14.779 6.66668 15C6.66668 15.221 6.75447 15.433 6.91076 15.5893C7.06704 15.7455 7.279 15.8333 7.50001 15.8333C7.72102 15.8333 7.93299 15.7455 8.08927 15.5893C8.24555 15.433 8.33334 15.221 8.33334 15C8.33334 14.779 8.24555 14.567 8.08927 14.4107C7.93299 14.2545 7.72102 14.1667 7.50001 14.1667ZM5.14168 14.1667C5.31385 13.6787 5.63313 13.2562 6.05551 12.9573C6.47789 12.6585 6.98258 12.498 7.50001 12.498C8.01744 12.498 8.52213 12.6585 8.94451 12.9573C9.36689 13.2562 9.68618 13.6787 9.85834 14.1667H15.8333C16.0544 14.1667 16.2663 14.2545 16.4226 14.4107C16.5789 14.567 16.6667 14.779 16.6667 15C16.6667 15.221 16.5789 15.433 16.4226 15.5893C16.2663 15.7455 16.0544 15.8333 15.8333 15.8333H9.85834C9.68618 16.3213 9.36689 16.7438 8.94451 17.0427C8.52213 17.3415 8.01744 17.502 7.50001 17.502C6.98258 17.502 6.47789 17.3415 6.05551 17.0427C5.63313 16.7438 5.31385 16.3213 5.14168 15.8333H4.16668C3.94566 15.8333 3.7337 15.7455 3.57742 15.5893C3.42114 15.433 3.33334 15.221 3.33334 15C3.33334 14.779 3.42114 14.567 3.57742 14.4107C3.7337 14.2545 3.94566 14.1667 4.16668 14.1667H5.14168Z" fill="#2F3443"/>
</svg>
