<svg width="17" height="8" viewBox="0 0 17 8" fill="none" xmlns="http://www.w3.org/2000/svg">
<path d="M2.11628 8C1.55501 8 1.01672 7.78086 0.619844 7.39078C0.222964 7.00071 0 6.47165 0 5.92V2.08C0 1.52835 0.222964 0.999294 0.619844 0.609218C1.01672 0.219142 1.55501 0 2.11628 0H12.9765C13.5377 0 14.076 0.219142 14.4729 0.609218C14.8698 0.999294 15.0927 1.52835 15.0927 2.08V5.92C15.0927 6.47165 14.8698 7.00071 14.4729 7.39078C14.076 7.78086 13.5377 8 12.9765 8H2.11628ZM0.75155 2.08V5.92C0.75191 6.2754 0.895759 6.61613 1.15151 6.86737C1.40726 7.11861 1.754 7.25982 2.1156 7.26H12.9765C13.3379 7.25965 13.6844 7.11833 13.9399 6.86709C14.1954 6.61585 14.339 6.27522 14.3391 5.92V2.08C14.3388 1.72483 14.1951 1.38431 13.9397 1.1331C13.6842 0.881899 13.3378 0.74053 12.9765 0.74H2.1156C1.36269 0.74 0.752229 1.34 0.75155 2.08ZM2.5687 6.34667C2.33374 6.34579 2.10866 6.25361 1.94258 6.09025C1.7765 5.92689 1.68288 5.7056 1.68217 5.47467V2.52333C1.68217 2.29229 1.77532 2.07066 1.94122 1.90697C2.10713 1.74328 2.33227 1.65088 2.56734 1.65H12.5234C12.6401 1.64991 12.7557 1.67244 12.8636 1.71629C12.9715 1.76014 13.0695 1.82445 13.1521 1.90556C13.2347 1.98666 13.3002 2.08297 13.3449 2.18897C13.3896 2.29497 13.4126 2.40859 13.4126 2.52333V5.47467C13.4112 5.70585 13.317 5.92713 13.1504 6.09042C12.9839 6.2537 12.7586 6.34579 12.5234 6.34667H2.5687ZM15.3681 2.74C15.6334 2.83069 15.8634 3.00007 16.0266 3.22475C16.1898 3.44942 16.2779 3.71833 16.279 3.99436C16.28 4.27039 16.1939 4.53994 16.0324 4.7658C15.871 4.99166 15.6422 5.16271 15.3776 5.25533L15.3681 5.258V2.74Z" fill="#8F8F8F"/>
</svg>
