<svg width="20" height="20" viewBox="0 0 20 20" fill="none" xmlns="http://www.w3.org/2000/svg">
<rect width="20" height="20" rx="10" fill="url(#paint0_linear_0_250)"/>
<path d="M3.93414 15.8179L4.79159 12.7042C4.26148 11.7903 3.98339 10.7553 3.98628 9.69727C3.98628 6.38181 6.69766 3.6862 10.0261 3.6862C11.6425 3.6862 13.1604 4.31182 14.2988 5.44772C15.4401 6.58363 16.0687 8.09432 16.0658 9.70016C16.0658 13.0156 13.3544 15.7112 10.0232 15.7112H10.0203C9.00929 15.7112 8.0157 15.4575 7.13218 14.9789L3.93414 15.8179ZM7.28571 13.892L7.46821 14.0016C8.23875 14.4571 9.12226 14.6964 10.0232 14.6993H10.0261C12.7925 14.6993 15.0462 12.4592 15.0462 9.70304C15.0462 8.36821 14.5247 7.1141 13.5775 6.16847C12.6303 5.22285 11.3673 4.7039 10.0261 4.7039C7.25964 4.70102 5.00595 6.94112 5.00595 9.69727C5.00595 10.64 5.26956 11.5597 5.77359 12.3554L5.89236 12.5457L5.38543 14.3879L7.28571 13.892Z" fill="white"/>
<path d="M4.14563 15.6074L4.97411 12.6005C4.46138 11.7212 4.19198 10.7207 4.19198 9.70016C4.19487 6.50002 6.81066 3.89667 10.0261 3.89667C11.5874 3.89667 13.0503 4.5021 14.1511 5.59764C15.2519 6.69318 15.8573 8.15199 15.8573 9.70304C15.8573 12.9032 13.2386 15.5065 10.0261 15.5065H10.0232C9.04697 15.5065 8.08814 15.2615 7.23649 14.8002L4.14563 15.6074Z" fill="url(#paint1_linear_0_250)"/>
<path d="M3.93414 15.8179L4.79159 12.7042C4.26148 11.7903 3.98339 10.7553 3.98628 9.69727C3.98628 6.38181 6.69766 3.6862 10.0261 3.6862C11.6425 3.6862 13.1604 4.31182 14.2988 5.44772C15.4401 6.58363 16.0687 8.09432 16.0658 9.70016C16.0658 13.0156 13.3544 15.7112 10.0232 15.7112H10.0203C9.00929 15.7112 8.0157 15.4575 7.13218 14.9789L3.93414 15.8179ZM7.28571 13.892L7.46821 14.0016C8.23875 14.4571 9.12226 14.6964 10.0232 14.6993H10.0261C12.7925 14.6993 15.0462 12.4592 15.0462 9.70304C15.0462 8.36821 14.5247 7.1141 13.5775 6.16847C12.6303 5.22285 11.3673 4.7039 10.0261 4.7039C7.25964 4.70102 5.00595 6.94112 5.00595 9.69727C5.00595 10.64 5.26956 11.5597 5.77359 12.3554L5.89236 12.5457L5.38543 14.3879L7.28571 13.892Z" fill="url(#paint2_linear_0_250)"/>
<path fill-rule="evenodd" clip-rule="evenodd" d="M8.51681 7.1833C8.40383 6.93248 8.28507 6.92671 8.17788 6.92383C8.09098 6.92094 7.98959 6.92094 7.88821 6.92094C7.78682 6.92094 7.6246 6.95842 7.48556 7.10834C7.34651 7.25826 6.95834 7.62152 6.95834 8.36245C6.95834 9.1005 7.50004 9.81548 7.57536 9.91639C7.65067 10.0173 8.62109 11.5828 10.1535 12.1853C11.4281 12.687 11.6888 12.5861 11.964 12.5601C12.2392 12.5342 12.8562 12.1968 12.9836 11.8451C13.1082 11.4934 13.1082 11.1936 13.0705 11.1301C13.0329 11.0667 12.9315 11.0292 12.7809 10.9543C12.6302 10.8793 11.8886 10.5161 11.7496 10.4642C11.6106 10.4151 11.5092 10.3892 11.4107 10.5391C11.3093 10.689 11.0196 11.0263 10.9327 11.1273C10.8458 11.2282 10.756 11.2397 10.6054 11.1647C10.4547 11.0898 9.96809 10.9312 9.39163 10.418C8.94263 10.0202 8.63847 9.52718 8.55157 9.37727C8.46466 9.22735 8.54288 9.14663 8.61819 9.07167C8.68482 9.00536 8.76883 8.8958 8.84414 8.80931C8.91946 8.72282 8.94553 8.6594 8.99477 8.55849C9.04402 8.45759 9.02085 8.3711 8.98319 8.29614C8.94553 8.22406 8.65006 7.48025 8.51681 7.1833Z" fill="white"/>
<defs>
<linearGradient id="paint0_linear_0_250" x1="9.99948" y1="19.999" x2="9.99948" y2="-0.000699748" gradientUnits="userSpaceOnUse">
<stop stop-color="#20B038"/>
<stop offset="1" stop-color="#60D66A"/>
</linearGradient>
<linearGradient id="paint1_linear_0_250" x1="10.0012" y1="15.6069" x2="10.0012" y2="3.89626" gradientUnits="userSpaceOnUse">
<stop stop-color="#20B038"/>
<stop offset="1" stop-color="#60D66A"/>
</linearGradient>
<linearGradient id="paint2_linear_0_250" x1="10.0012" y1="15.8168" x2="10.0012" y2="3.6862" gradientUnits="userSpaceOnUse">
<stop stop-color="#F9F9F9"/>
<stop offset="1" stop-color="white"/>
</linearGradient>
</defs>
</svg>
