<svg width="70" height="84" viewBox="0 0 70 84" fill="none" xmlns="http://www.w3.org/2000/svg">
<path d="M47.4927 22.9705C47.15 25.0327 45.8845 26.8099 44.312 27.9552C42.7395 29.1041 40.882 29.6746 39.0245 29.9596C35.541 30.4987 31.8355 30.0441 28.8375 27.9909C25.84 25.9376 23.7017 22.1066 23.9867 18.1911C24.1735 15.581 25.1713 11.8613 26.3606 9.60752C28.0843 6.33341 30.2047 4.31111 33.2028 2.51192C33.2783 2.4673 33.3545 2.42268 33.4301 2.37805C36.0979 0.88111 39.3809 0.837087 42.0761 2.27989C42.0761 2.27989 42.4456 3.54954 42.7485 4.70735C42.8645 5.14822 42.9668 5.56709 43.0382 5.90087C43.2964 7.10806 43.2964 8.36879 43.5148 9.58907C43.9336 11.9279 45.1093 13.9942 46.0892 16.1189C47.0697 18.2399 47.8848 20.6234 47.4927 22.9705Z" fill="#3F0727"/>
<path d="M47.4928 22.9705C47.1501 25.0327 45.8846 26.8099 44.3121 27.9552C42.7396 29.1041 40.8821 29.6746 39.0246 29.9596C35.5411 30.4987 31.8356 30.0441 28.8375 27.9909C25.8401 25.9376 23.7018 22.1066 23.9868 18.1911C24.1736 15.581 25.1713 11.8613 26.3607 9.60752C28.0843 6.33341 30.2048 4.31111 33.2028 2.51192C33.2784 2.4673 33.3545 2.42267 33.4301 2.37805L33.9245 3.45613L28.1206 10.1424C28.1206 10.1424 22.9182 18.9842 28.4371 23.3543C33.9561 27.7237 43.7332 26.5213 45.4663 24.0444C47.1947 21.5676 44.1788 14.4767 44.1788 14.4767L42.0631 5.07326L42.7491 4.70795C42.8651 5.14882 42.9675 5.56768 43.0389 5.90146C43.2971 7.10865 43.2971 8.36939 43.5154 9.58967C43.9343 11.9285 45.1099 13.9948 46.0899 16.1195C47.0698 18.2399 47.8849 20.6234 47.4928 22.9705Z" fill="#55062C"/>
<path d="M47.2614 82.521C41.9519 84.3029 22.1162 81.4786 22.1162 81.4786C22.1162 81.4786 22.7754 56.2936 23.0652 55.2024C23.3502 54.1112 26.0365 49.8435 26.0365 49.8435L28.7406 50.0173L43.2126 50.9394L46.7759 78.7435L47.2614 82.521Z" fill="#CA9F87"/>
<path d="M47.2614 82.521C41.9519 84.3029 21.5 82.5 21.5 82.5C21.5 82.5 22.7754 56.2936 23.0652 55.2024C23.3502 54.1112 26.0365 49.8435 26.0365 49.8435L28.7406 50.0173C27.2217 52.271 24.7406 56.1865 24.9501 57.4294C25.2481 59.2113 25 79 25 79C25 79 38.7759 80.0352 46.7765 78.7435L47.2614 82.521Z" fill="#B48674"/>
<path d="M28.2991 20.6859L28.3217 20.8198L28.3306 20.8864C28.3348 20.9132 28.3396 20.94 28.3396 20.9667C28.5002 22.0758 28.8738 24.7888 29.1773 28.0492C29.2308 28.5924 29.2796 29.1541 29.3242 29.7241C29.5021 31.9558 29.6271 34.3434 29.6271 36.5972C29.6271 41.4355 26.0096 47.2638 24.95 50.3035L44.1467 50.9734C43.6189 46.1893 44.2151 35.8178 44.2151 35.8178C44.2151 35.8178 44.5037 35.5863 44.9314 34.9616C46.2493 33.0345 46.5974 30.6159 46.0131 28.3556C45.0867 24.7721 43.1281 20.762 43.1281 20.762C43.1281 20.762 42.4867 20.8109 41.5734 20.8644C39.4131 20.9846 35.7291 21.1363 35.4173 20.7573C34.9806 20.2182 35.8403 16.9263 35.8403 16.9263L31.9784 15.6078C31.9784 15.6078 31.3192 20.2046 30.8378 20.4985L29.1451 20.4497L28.2586 20.4229L28.2854 20.5836L28.2991 20.6859Z" fill="#FFB15F"/>
<path d="M40.7957 25.8371C39.5618 26.8623 38.235 27.5619 36.6375 27.81C35.162 28.0391 33.8417 27.675 32.3936 27.4757C32.1586 27.4436 32.0348 27.7113 32.2323 27.8571C34.8811 29.8109 39.2214 28.5395 41.3657 26.4077C41.7417 26.0353 41.189 25.5105 40.7957 25.8371Z" fill="#F79244"/>
<path d="M41.5729 20.8638C41.2433 22.4226 40.1253 25.5896 36.4461 26.2756C32.3705 27.033 29.8847 22.1596 29.1452 20.4491L30.8379 20.4979C31.3192 20.204 31.9784 15.6072 31.9784 15.6072L35.8404 16.9257C35.8404 16.9257 34.9806 20.2177 35.4174 20.7567C35.7291 21.1357 39.4126 20.984 41.5729 20.8638Z" fill="#FFA07F"/>
<path d="M33.8774 1.70463C34.0244 1.69511 39.4993 2.61196 40.5048 4.41591C41.5103 6.21986 43.1375 12.9537 41.8815 16.2855C40.6255 19.6174 38.3879 19.2735 37.5876 19.0801C36.7874 18.8867 33.0046 17.513 32.0907 16.3432C31.1768 15.1735 29.0457 9.01382 29.38 7.36754C29.7132 5.72126 33.8774 1.70463 33.8774 1.70463Z" fill="#FFBF90"/>
<path d="M33.602 1.2263C33.749 1.21678 39.2239 2.13363 40.2294 3.93758C41.2349 5.74152 42.8621 12.4754 41.6061 15.8072C40.3502 19.139 38.1125 18.7951 37.3123 18.6018C36.512 18.4084 32.7292 17.0346 31.8153 15.8649C30.9015 14.6952 28.7703 8.5355 29.1047 6.88922C29.4378 5.24294 33.602 1.2263 33.602 1.2263Z" fill="#FFA07F"/>
<path d="M37.9279 12.8734C37.7566 12.8543 37.5793 12.8067 37.4169 12.8638C37.6751 13.203 38.0707 13.4344 38.4931 13.4921C38.5259 13.4963 38.5592 13.4999 38.5913 13.491C38.63 13.4802 38.6615 13.4523 38.6901 13.4243C38.8733 13.247 39.0209 13.034 39.1214 12.8002C39.1417 12.7526 39.1607 12.7032 39.1601 12.6514C39.1589 12.4807 39.0566 12.5432 38.9697 12.6044C38.8692 12.6752 38.7591 12.7336 38.6443 12.7782C38.4176 12.8656 38.1701 12.9007 37.9279 12.8734Z" fill="#FF7D6F"/>
<path d="M38.5051 13.3916C38.5824 13.2797 38.6746 13.178 38.7544 13.0673C38.8531 12.9311 38.9412 12.7871 39.012 12.6342C38.3986 12.4004 38.2706 11.8506 38.1445 11.2229C38.0874 10.9397 38.0987 10.644 38.1749 10.3656C38.2153 10.2192 38.273 10.0782 38.3474 9.94613C38.3855 9.8789 38.4271 9.81405 38.4729 9.75218C38.5176 9.69149 38.5693 9.65102 38.63 9.60699C38.6068 9.65162 38.5949 9.7004 38.5753 9.74502C38.5229 9.86283 38.4658 9.9747 38.4259 10.0985C38.3861 10.2216 38.3575 10.3489 38.3391 10.4768C38.3028 10.7333 38.3087 10.9968 38.3611 11.2509C38.4123 11.5002 38.5098 11.7412 38.6562 11.9494C38.8234 12.1874 39.0697 12.4039 39.3469 12.4991C39.3493 12.4997 39.0899 13.0049 39.0632 13.0471C38.9935 13.1572 38.9132 13.2607 38.8228 13.3541C38.7341 13.4457 38.633 13.554 38.5033 13.5802C38.4628 13.5885 38.4194 13.5897 38.3807 13.5742C38.3992 13.5546 38.4158 13.5326 38.4301 13.5094C38.436 13.4993 38.442 13.4892 38.4479 13.4785C38.467 13.4499 38.4854 13.4201 38.5051 13.3916Z" fill="#FC5B68"/>
<path d="M31.5726 12.9811C31.3703 12.896 30.3065 11.6376 29.646 12.4688C28.985 13.3 28.8637 14.625 29.5628 15.3294C30.2006 15.9726 31.0781 16.6562 32.0908 16.3432L31.5726 12.9811Z" fill="#FFA07F"/>
<path d="M29.7187 13.4719C29.6872 13.6498 29.7246 13.8301 29.7895 13.9997C30.0638 14.7208 30.7873 15.2396 31.4792 15.7203C31.2585 15.3758 31.1609 14.9784 31.1782 14.5839C31.1841 14.4465 31.2037 14.3097 31.1966 14.1728C31.168 13.6219 29.9055 12.4218 29.7187 13.4719Z" fill="#FF7D6F"/>
<path d="M31.823 15.9101C31.823 15.9101 31.8093 15.9029 31.7843 15.8899C31.7593 15.8762 31.7195 15.8577 31.6736 15.8286C31.5814 15.7709 31.4529 15.6775 31.3291 15.5353C31.2054 15.3931 31.09 15.2003 31.0263 14.9677C30.9674 14.7356 30.9603 14.4613 31.0632 14.1906C31.0739 14.1567 31.0894 14.124 31.1054 14.0913L31.1173 14.0669C31.1203 14.0609 31.1191 14.0639 31.1191 14.0639V14.0645L31.1197 14.0639C31.1197 14.0639 31.1203 14.0651 31.1179 14.0603L31.106 14.0395L31.081 13.9991C31.0644 13.9723 31.0477 13.9455 31.0299 13.9199C30.9609 13.8158 30.8877 13.7188 30.8127 13.6296C30.7377 13.5397 30.6604 13.4576 30.5848 13.3827C30.5087 13.3083 30.4355 13.2387 30.3635 13.1887C30.2921 13.1375 30.2148 13.1066 30.144 13.1012C30.0732 13.0971 30.0071 13.1179 29.9637 13.1441C29.9197 13.1709 29.8965 13.2036 29.8875 13.2268C29.878 13.2506 29.8792 13.2643 29.878 13.2643C29.8792 13.2643 29.8739 13.2512 29.8774 13.225C29.8804 13.1994 29.8965 13.1595 29.9393 13.1209C29.9821 13.0834 30.0506 13.0465 30.144 13.0388C30.2368 13.0322 30.3397 13.0596 30.4325 13.1078C30.5265 13.1566 30.6116 13.2191 30.7015 13.2881C30.7907 13.3577 30.8817 13.4368 30.9704 13.5261C31.0584 13.6153 31.1447 13.7141 31.2238 13.8218C31.2441 13.8485 31.2631 13.8765 31.2821 13.9044L31.3101 13.9467L31.3476 14.0068L31.3732 14.049C31.3678 14.0639 31.3595 14.0788 31.353 14.0942L31.3232 14.1585C31.3095 14.1865 31.2958 14.215 31.2869 14.2448C31.1977 14.4798 31.1893 14.7202 31.2215 14.9337C31.2583 15.1473 31.3375 15.3342 31.4297 15.4805C31.5219 15.6269 31.6237 15.734 31.6992 15.8042C31.7367 15.8399 31.7706 15.8637 31.7908 15.8815C31.8117 15.9006 31.823 15.9101 31.823 15.9101Z" fill="#CF4A57"/>
<path d="M41.2586 7.76145C41.2586 7.76145 40.2435 7.05582 39.6355 7.14447C39.0274 7.23312 38.8709 7.8025 39.1173 7.90186C39.3636 8.00122 41.2586 7.76145 41.2586 7.76145Z" fill="#3F0727"/>
<path d="M32.6686 9.14176C32.6686 9.14176 34.0162 7.83282 34.9556 7.60495C35.8951 7.37767 36.2777 7.91433 35.932 8.15351C35.5863 8.39328 32.6686 9.14176 32.6686 9.14176Z" fill="#3F0727"/>
<path d="M33.5227 9.68076C33.6405 9.91993 33.9802 10.0853 34.2158 10.1752C34.32 10.0324 34.4538 9.94076 34.6073 9.92767C34.9976 9.89316 35.3588 10.3733 35.4141 10.9998C35.4694 11.6263 35.1981 12.1624 34.8078 12.1969C34.4175 12.2314 34.0564 11.7512 34.001 11.1247C33.9838 10.9308 33.9981 10.7452 34.0373 10.5809C33.7161 10.3453 33.5227 9.68076 33.5227 9.68076Z" fill="#161818"/>
<path d="M34.7537 11.1783C34.7537 11.1783 34.3325 11.3734 33.8744 11.2878C33.4163 11.2021 33.0938 10.8683 33.0938 10.8683C33.0938 10.8683 33.515 10.6732 33.9731 10.7588C34.4319 10.8445 34.7537 11.1783 34.7537 11.1783Z" fill="#FFF0E7"/>
<path d="M40.872 8.88412C40.825 9.09712 40.5864 9.29465 40.4168 9.41186C40.3062 9.31845 40.1818 9.27204 40.0575 9.29108C39.7403 9.33927 39.5464 9.79146 39.6243 10.3008C39.7023 10.81 40.0223 11.1837 40.3395 11.1349C40.6566 11.0867 40.8506 10.6345 40.7726 10.1252C40.7488 9.96756 40.7012 9.82299 40.6376 9.69983C40.847 9.44994 40.872 8.88412 40.872 8.88412Z" fill="#161818"/>
<path d="M40.1832 10.3144C40.1832 10.3144 40.5562 10.3876 40.9043 10.2305C41.2523 10.0735 41.4439 9.74505 41.4439 9.74505C41.4439 9.74505 41.0709 9.67188 40.7228 9.82895C40.3748 9.98602 40.1832 10.3144 40.1832 10.3144Z" fill="#FFF0E7"/>
<path d="M35.3697 13.3488C35.3459 13.6415 34.6998 13.8271 33.9275 13.7634C33.1552 13.6998 32.5484 13.4112 32.5722 13.1185C32.596 12.8258 33.2421 12.6402 34.0144 12.7038C34.7867 12.7675 35.3935 13.0566 35.3697 13.3488Z" fill="#FF7D6F"/>
<path d="M42.7766 11.4889C42.8813 11.6852 42.4869 12.0993 41.8961 12.4146C41.3052 12.73 40.7412 12.8263 40.6365 12.63C40.5318 12.4337 40.9262 12.0196 41.5171 11.7042C42.1085 11.3895 42.6725 11.2925 42.7766 11.4889Z" fill="#FF7D6F"/>
<path d="M40.2806 14.8327C40.2806 14.8327 37.5926 13.5713 35.0984 14.9213C35.0984 14.9213 36.2919 16.9823 37.6342 16.9252C39.2638 16.8555 40.2806 14.8327 40.2806 14.8327Z" fill="#FC5B68"/>
<path d="M40.1299 14.8976C40.1299 14.8976 38.2837 14.4264 35.2535 14.9577C35.2535 14.9577 35.9931 16.6111 37.7607 16.5028C39.5284 16.3951 40.1299 14.8976 40.1299 14.8976Z" fill="#FFF0E7"/>
<path d="M31.6326 13.0366C31.6326 13.0366 30.5664 12.0852 29.8233 12.4814C29.8233 12.4814 29.1629 13.2412 29.0951 13.9249C29.0951 13.9249 28.6292 12.065 28.1175 10.1379C28.1146 10.1349 28.1146 10.1349 28.1146 10.1319C28.0217 9.77435 27.9289 9.4138 27.8486 9.05979C27.5511 7.79965 27.3637 6.63231 27.4881 6.04686C27.4964 6.01176 27.5047 5.9832 27.513 5.95702C27.5249 5.91954 27.5368 5.88503 27.5517 5.8535C28.1598 4.59752 31.9961 0.276261 34.2624 0.0323233C34.7901 -0.0241987 35.4416 -0.00100226 36.1466 0.0787236C36.2311 0.0870532 36.3162 0.0959802 36.4001 0.107285C36.5161 0.120969 36.6315 0.13465 36.7476 0.154284C36.8291 0.165588 36.91 0.1769 36.9915 0.191179C38.0499 0.359555 39.156 0.622529 40.077 0.914064C40.1912 0.951547 40.3055 0.988433 40.4167 1.02532C40.4691 1.04377 40.525 1.06221 40.5774 1.08006C40.7904 1.15324 40.9873 1.22821 41.1682 1.30556C41.2146 1.32341 41.2574 1.34363 41.3003 1.36148C41.6436 1.50844 41.9089 1.65599 42.0702 1.79105C42.4081 2.07366 42.7324 2.73883 43.0114 3.47838C43.5207 4.82955 43.8741 6.43359 43.8741 6.43359C42.6907 5.97546 41.4002 5.86658 40.1561 6.11944L38.0238 6.55318C38.0238 6.55318 33.8495 7.34032 32.578 7.99359L31.0727 8.57131L31.6326 13.0366Z" fill="#3F0727"/>
<path d="M27.8492 9.05909C27.9295 9.4131 28.0223 9.77365 28.1151 10.1312C28.1151 10.1342 28.1151 10.1342 28.1181 10.1372C28.1181 10.1401 28.1211 10.1401 28.1211 10.1431C28.7333 9.76472 28.9612 8.15236 29.2152 7.51099C29.5192 6.74288 29.4901 5.81056 30.1118 5.2376C30.5723 4.81339 31.2702 4.71581 31.9211 4.70867C32.5691 4.69855 33.2378 4.7527 33.8476 4.551C34.9097 4.19997 35.5498 3.16473 36.5702 2.72445C37.7953 2.19493 39.2268 2.63937 40.5131 3.04097C41.3109 3.28908 42.1921 3.511 43.0119 3.47709C42.7329 2.73754 42.4086 2.07237 42.0707 1.78976C41.9095 1.6547 41.6447 1.50714 41.3008 1.36019C41.258 1.34234 41.2151 1.32211 41.1687 1.30426C40.9879 1.22692 40.7909 1.15194 40.5779 1.07876C40.5256 1.06032 40.4702 1.04188 40.4173 1.02403C40.306 0.987141 40.1918 0.94966 40.0776 0.912771C39.1566 0.620642 38.0505 0.357668 36.9921 0.189886C36.9111 0.175607 36.8296 0.164296 36.7481 0.152991C36.6327 0.133357 36.5167 0.119676 36.4007 0.105992C36.3162 0.0940924 36.2317 0.0857603 36.1472 0.0774308C35.4422 -0.0022951 34.7907 -0.0249057 34.2629 0.0310214C31.9961 0.274959 28.1597 4.59623 27.5523 5.85221C27.5374 5.88374 27.5255 5.91825 27.5136 5.95573C27.5053 5.98191 27.4975 6.01047 27.4886 6.04557C27.3649 6.63161 27.5517 7.79894 27.8492 9.05909Z" fill="#55062C"/>
<path d="M27.5144 5.95626C28.126 5.77241 28.6847 5.444 29.1035 4.99063C29.5527 4.50692 29.8788 3.87862 30.494 3.59185C31.1907 3.26938 32.054 3.48357 32.79 3.2432C33.8288 2.90526 34.3303 1.77482 35.2859 1.2691C36.192 0.788955 37.3111 0.952569 38.3511 1.02516C38.7944 1.0549 39.5095 1.07335 40.0789 0.913299C38.2738 0.343914 35.7612 -0.128488 34.2643 0.0315584C31.9975 0.275496 28.1611 4.59675 27.5536 5.85273C27.5376 5.88427 27.5263 5.91877 27.5144 5.95626Z" fill="#6F0A32"/>
<path d="M30.8379 20.4985C30.8379 20.4985 32.4401 39.2781 31.4786 42.3963C30.5172 45.5145 27.1294 64.785 25.3153 64.782C23.5013 64.779 14.4816 60.3251 14.8153 58.5432C15.1497 56.7612 21.6081 36.0486 21.6081 36.0486C21.6081 36.0486 22.4048 22.6856 23.0646 22.0174C23.7244 21.3493 27.0652 19.8601 30.8379 20.4985Z" fill="#FF8035"/>
<path d="M28.3514 48.4162L27.0597 47.7112L21.5211 53.6877L22.4124 54.6527L28.3514 48.4162Z" fill="#FDE4D9"/>
<path d="M38.5153 20.9876C38.5153 20.9876 44.6524 62.1791 44.8493 63.7129C45.0457 65.2467 53.123 57.7638 53.2348 56.205C53.3461 54.6462 47.2613 37.1624 47.2613 37.1624C47.2613 37.1624 48.5203 32.671 47.7409 30.1097C46.9615 27.5483 43.8754 20.542 43.8754 20.542C43.8754 20.542 42.0589 20.1802 38.5153 20.9876Z" fill="#FF8035"/>
<path d="M31.4328 18.716C31.4328 18.716 27.8165 19.6977 27.6916 20.4122C27.5666 21.1268 31.2519 25.974 31.2519 25.974L33.5229 22.3453L31.4328 18.716Z" fill="#FDE4D9"/>
<path d="M35.5196 18.3495C35.5196 18.3495 34.9532 19.9417 35.4173 20.7568C35.8814 21.5719 39.0157 24.345 39.0157 24.345L41.5735 20.5063C41.5735 20.5063 38.4981 19.2075 38.2749 19.186C38.0518 19.1652 35.5196 18.3495 35.5196 18.3495Z" fill="#FDE4D9"/>
<path d="M21.1999 71.1381C17.5569 71.2892 13.927 71.0257 10.3697 70.3533C6.8124 69.681 3.33659 68.6018 0 67.131L5.96576 45.2897L23.6173 48.6257L21.5772 67.645L21.1999 71.1381Z" fill="#3A435E"/>
<path d="M26.9599 69.9393C23.408 70.7645 19.7923 71.1792 16.1725 71.1792C12.5521 71.1792 8.93652 70.7645 5.38515 69.9393L7.19088 47.3703H25.1548L26.6821 66.4379L26.9599 69.9393Z" fill="#456997"/>
<path d="M11.8088 47.3703L17.3028 44.5496C17.3028 44.5496 17.9341 39.7238 17.1541 36.6061C17.1541 36.6061 23.1674 35.4923 24.9493 33.9335L24.1586 21.3481C24.1586 21.3481 8.91373 26.4726 6.5755 35.0473C4.23668 43.6208 11.8088 47.3703 11.8088 47.3703Z" fill="#FF8035"/>
<path d="M22.6826 47.4637H21.7568C21.2915 44.7007 19.0806 42.4802 16.0439 42.5487C13.094 42.6171 11.0241 44.7964 10.591 47.4637H9.66107C10.099 44.2949 12.6109 41.7187 16.0439 41.6366C19.5643 41.5545 22.2131 44.1991 22.6826 47.4637Z" fill="#E94E21"/>
<path d="M21.172 48.2592L20.2623 48.0872C20.3182 45.2861 18.5583 42.6932 15.5615 42.1964C12.6503 41.7157 10.2115 43.4727 9.29048 46.0132L8.37661 45.8406C9.3952 42.8081 12.3421 40.7435 15.731 41.3004C19.2051 41.874 21.3172 44.9642 21.172 48.2592Z" fill="#FDE4D9"/>
<path d="M24.9304 46.9733C24.7882 47.5921 20.6639 46.1451 20.6639 46.1451L19.8856 47.0709L21.5504 47.8384L23.1532 49.9773C23.1532 49.9773 22.9045 50.4325 22.5707 50.9733C22.5428 51.0269 22.5112 51.0756 22.4767 51.122C22.4743 51.1268 22.4714 51.1298 22.4684 51.1345C22.4595 51.1482 22.4458 51.1649 22.4369 51.1786C22.4012 51.2399 22.3583 51.3059 22.3173 51.366C22.1495 51.6284 21.9621 51.8902 21.7842 52.1097C21.7622 52.1353 21.739 52.1656 21.7223 52.1918C21.6069 52.3251 21.4974 52.4399 21.3939 52.5297C21.282 52.6285 21.1797 52.6946 21.0833 52.71L19.5084 51.3511C19.5084 51.3511 16.6788 51.8687 16.2688 51.7242C16.1052 51.667 15.6245 51.0774 15.1068 50.3926C14.9254 50.1493 14.7463 49.894 14.5684 49.6513C14.5684 49.6513 14.5642 49.6453 14.5523 49.6322C14.4934 49.546 14.4286 49.4591 14.3649 49.3722L14.8653 48.6595L14.9914 48.4834L15.0462 48.4001L15.0997 48.318L16.7621 45.9298C16.8233 45.9048 16.8858 45.8798 16.9542 45.8512C17.1869 45.7578 17.4659 45.6561 17.7729 45.5502C17.9657 45.4883 18.1715 45.4181 18.3816 45.3538C19.1479 45.1158 19.985 44.9219 20.6621 44.9159C20.9477 44.9129 21.21 44.9385 21.4135 45.0153C22.8605 45.5389 25.066 46.3569 24.9304 46.9733Z" fill="#FFA07F"/>
<path d="M22.5689 50.9764C22.5273 51.0442 22.4833 51.1126 22.4392 51.1817C22.4261 51.1698 22.4142 51.1549 22.4023 51.1418C22.1953 50.9103 21.9103 50.6028 21.5956 50.2767C21.2785 49.9513 20.9726 49.6776 20.7198 49.4979C20.6555 49.4533 20.5984 49.4128 20.5472 49.3783C20.4925 49.3462 20.4443 49.3194 20.4062 49.2962C20.3271 49.2498 20.2837 49.2236 20.2837 49.2236C20.2837 49.2236 20.3348 49.2272 20.43 49.2373C20.477 49.2438 20.5365 49.2498 20.6044 49.2617C20.6698 49.2771 20.7448 49.298 20.8269 49.3212C21.1547 49.4211 21.5813 49.6508 21.9282 50.0072C22.2483 50.3386 22.4505 50.6968 22.5689 50.9764Z" fill="#CF4A57"/>
<path d="M21.7842 52.1091C21.764 52.1365 21.7414 52.1627 21.7212 52.1889C21.6628 52.1246 21.5885 52.0383 21.4975 51.9366C21.2904 51.7052 21.0054 51.3976 20.6907 51.0703C20.3736 50.7461 20.0677 50.4724 19.8149 50.2927C19.7506 50.2481 19.6923 50.2076 19.6411 50.1719C19.5864 50.141 19.5394 50.113 19.5001 50.091C19.4222 50.044 19.3776 50.0172 19.3776 50.0172C19.3776 50.0172 19.4299 50.0208 19.5251 50.0321C19.5721 50.0369 19.6316 50.0446 19.6989 50.0553C19.7643 50.072 19.8381 50.0916 19.9214 50.116C20.2474 50.2154 20.674 50.4444 21.0221 50.8008C21.3666 51.159 21.5742 51.5469 21.6896 51.8349C21.7325 51.942 21.7622 52.0342 21.7842 52.1091Z" fill="#CF4A57"/>
<path d="M11.8089 47.3703C11.8089 47.3703 12.7656 49.0713 14.5517 49.6312L17.6045 45.608L17.3022 44.5489L11.8089 47.3703Z" fill="#FDE4D9"/>
<path d="M56.9653 47.0044L51.4714 44.183C51.4714 44.183 50.3605 39.0359 52.2758 36.4549C52.2758 36.4549 46.9234 34.8307 45.8757 32.7078L43.8754 20.5419C43.8754 20.5419 61.4752 24.3449 62.6443 39.071C63.1173 45.0273 56.9653 47.0044 56.9653 47.0044Z" fill="#FF8035"/>
<path d="M21.962 24.0676C21.8407 23.9802 21.7015 24.1468 21.7669 24.2628C22.5249 25.6152 23.4031 26.7284 23.7618 28.2961C24.2414 30.391 23.8386 32.3942 22.9039 34.2928C22.6897 34.7277 23.334 35.1121 23.5589 34.6759C25.2147 31.4589 25.1969 26.3892 21.962 24.0676Z" fill="#E94E21"/>
<path d="M44.1461 48.0754L45.4384 47.3703L50.9764 53.3462L50.0857 54.3118L44.1461 48.0754Z" fill="#FDE4D9"/>
<path d="M43.6986 22.2108C43.6766 22.1953 43.6445 22.2209 43.6528 22.2465C44.171 23.7975 45.2111 25.1499 45.8322 26.6796C46.6211 28.621 47.1257 30.6284 47.3583 32.7114C47.4178 33.2468 48.2638 33.257 48.2073 32.7114C47.8557 29.2998 46.6872 24.3235 43.6986 22.2108Z" fill="#E94E21"/>
<path d="M16.8597 35.8089C16.4075 35.2669 15.9303 34.7076 15.4145 34.2263C15.076 33.9103 14.641 34.3762 14.9177 34.7231C15.1789 35.0509 15.4698 35.3656 15.7679 35.6715C15.6257 35.6602 15.4829 35.6512 15.3413 35.6334C14.9582 35.5852 14.5833 35.471 14.1996 35.5334C13.9872 35.5679 14.0062 35.8464 14.1454 35.9469C14.7517 36.3836 15.9 36.3634 16.6217 36.3848C16.9358 36.3943 17.0358 36.0201 16.8597 35.8089Z" fill="#E94E21"/>
<path d="M55.6676 35.0348C55.2701 34.8825 54.8483 35.1955 54.4848 35.3513C54.2289 35.4608 53.9731 35.5709 53.7173 35.6803C53.7559 35.5423 53.7964 35.4049 53.8345 35.2668C53.9231 34.9485 54.0255 34.6802 53.9499 34.3548C53.9118 34.1923 53.7024 34.1519 53.5893 34.2596C53.3508 34.4874 53.2907 34.7807 53.1925 35.0901C53.0759 35.4572 52.9581 35.8237 52.848 36.1932C52.7528 36.5127 53.0991 36.6989 53.3591 36.5859C53.8499 36.3723 54.3408 36.1587 54.8316 35.9451C55.219 35.7767 55.6438 35.7018 55.8133 35.2918C55.8592 35.1806 55.7616 35.0711 55.6676 35.0348Z" fill="#E94E21"/>
<path d="M69.0503 67.5189C65.6762 68.9004 62.173 69.8875 58.599 70.4658C55.0251 71.0441 51.3898 71.2113 47.7522 70.9638L45.931 48.396L63.6646 45.5276L68.2173 64.1067L69.0503 67.5189Z" fill="#3A435E"/>
<path d="M61.2396 46.0143L60.3257 46.1618C59.4256 43.5082 56.888 41.6698 53.9013 42.2219C51.0002 42.7604 49.3045 45.2426 49.3027 47.9443L48.3847 48.0931C48.3109 44.8951 50.3796 41.9512 53.7555 41.3217C57.2176 40.6792 60.2549 42.8669 61.2396 46.0143Z" fill="#FDE4D9"/>
<path d="M42.0441 70.4943C45.5961 71.3195 49.2117 71.7342 52.8315 71.7342C56.4519 71.7342 60.0675 71.3195 63.6189 70.4943L61.8132 47.9253H43.8492L42.322 66.9929L42.0441 70.4943Z" fill="#456997"/>
<path d="M46.3206 48.0187H47.2464C47.7117 45.2557 49.9232 43.0353 52.9593 43.1037C55.9092 43.1721 57.9791 45.3515 58.4122 48.0187H59.3421C58.9042 44.8499 56.3923 42.2737 52.9587 42.1916C49.4395 42.1101 46.7907 44.7541 46.3206 48.0187Z" fill="#E94E21"/>
<path d="M43.8437 46.6074C43.9859 47.2262 48.1102 45.7792 48.1102 45.7792L48.8884 46.705L47.2237 47.4725L45.6208 49.6114C45.6208 49.6114 45.8695 50.0666 46.2033 50.6074C46.2313 50.661 46.2628 50.7097 46.2973 50.7562C46.2997 50.7609 46.3027 50.7639 46.3056 50.7686C46.3146 50.7823 46.3283 50.799 46.3372 50.8127C46.3729 50.874 46.4157 50.94 46.4568 51.0001C46.6246 51.2625 46.812 51.5242 46.9899 51.7438C47.0119 51.7694 47.0351 51.7997 47.0517 51.8259C47.1672 51.9592 47.2766 52.074 47.3802 52.1638C47.492 52.2626 47.5944 52.3286 47.6907 52.3441L49.2656 50.9852C49.2656 50.9852 52.0953 51.5028 52.5052 51.3583C52.6688 51.3011 53.1496 50.7115 53.6672 50.0267C53.8487 49.7828 54.0278 49.5281 54.2056 49.2854C54.2056 49.2854 54.2098 49.2794 54.2211 49.2664C54.28 49.1801 54.3449 49.0932 54.4085 49.0063L53.9082 48.2942L53.782 48.118L53.7273 48.0348L53.6743 47.9527L52.012 45.5644C51.9507 45.5395 51.8882 45.5145 51.8198 45.4859C51.5872 45.3925 51.3076 45.2908 51.0012 45.1849C50.8084 45.123 50.6025 45.0528 50.3925 44.9885C49.6262 44.7505 48.7891 44.5566 48.112 44.5506C47.8264 44.5476 47.564 44.5732 47.3605 44.65C45.9136 45.173 43.708 45.991 43.8437 46.6074Z" fill="#FFA07F"/>
<path d="M46.205 50.6103C46.2461 50.6782 46.2907 50.7466 46.3341 50.8156C46.3472 50.8037 46.3591 50.7888 46.371 50.7758C46.578 50.5449 46.863 50.2367 47.1778 49.9107C47.4949 49.5852 47.8007 49.3115 48.0536 49.1319C48.1178 49.0872 48.1749 49.0468 48.2261 49.0123C48.2809 48.9801 48.329 48.9534 48.3671 48.9302C48.4463 48.8838 48.4897 48.8576 48.4897 48.8576C48.4897 48.8576 48.4385 48.8612 48.3433 48.8713C48.2963 48.8778 48.2368 48.8838 48.169 48.8956C48.1035 48.9111 48.0286 48.9319 47.9465 48.9552C47.6186 49.0551 47.1921 49.2848 46.8452 49.6411C46.5257 49.9725 46.324 50.3307 46.205 50.6103Z" fill="#CF4A57"/>
<path d="M46.9899 51.7432C47.0101 51.7706 47.0327 51.7968 47.053 51.823C47.1113 51.7587 47.1856 51.673 47.2767 51.5707C47.4837 51.3398 47.7687 51.0316 48.0834 50.7044C48.4006 50.3802 48.7064 50.1065 48.9592 49.9268C49.0235 49.8822 49.0818 49.8423 49.133 49.806C49.1877 49.7751 49.2347 49.7471 49.274 49.7251C49.3513 49.6781 49.3965 49.6513 49.3965 49.6513C49.3965 49.6513 49.3442 49.6549 49.2484 49.6662C49.2014 49.6715 49.1419 49.6787 49.0747 49.6894C49.0092 49.7061 48.9354 49.7257 48.8521 49.7501C48.5261 49.8494 48.0995 50.0785 47.7515 50.4349C47.407 50.7931 47.1993 51.181 47.0839 51.469C47.0417 51.576 47.0119 51.6683 46.9899 51.7432Z" fill="#CF4A57"/>
<path d="M56.9652 47.0043C56.9652 47.0043 56.0084 48.7054 54.2223 49.2652L51.1696 45.242L51.4718 44.183L56.9652 47.0043Z" fill="#FDE4D9"/>
<path d="M27.6796 8.28553L23.9616 7.92618L24.9493 5.95623L27.1763 7.13665L26.4528 4.0327L28.29 7.13665L27.6796 8.28553Z" fill="#55062C"/>
</svg>
